# xmcd
#
# Track frame offsets:
#	150
#	18188
#	34325
#	49383
#	65803
#	82498
#	100746
#	118785
#	137092
#	154716
#	173592
#	198733
#	214971
#	235742
#	249999
#	269084
#	288771
#	305400
#
# Disc length: 4325
#
# Revision: 1
# Processed by: cddbd v1.5.1PL0 Copyright (c) Steve Scherf et al.
# Submitted via: audiograbber 1.83.01
# Normalized: r0:DSETVAR1
#
DISCID=0f10e312
DTITLE=Various Artist - Neu Bei 1998.
DYEAR=1900
DGENRE=
TTITLE0=Nana. - Too Much Heaven. (Video Mix)
TTITLE1=Dj Quicksilver. - Planet Love. (Video Mix)
TTITLE2=Rodrigues. - Caramba. (Video Radio Mix)
TTITLE3=Kosmonova. - Take Me Away. (Short Version)
TTITLE4=Scooter. - No Fate. (Radio Edit)
TTITLE5=Verena. - Finaly Alone. (Video Mix)
TTITLE6=Will Smith. - Just Cruisin. (Radio US Mix)
TTITLE7=2 Some. - Street Life. (Radio Mix)
TTITLE8=Dario G. - Sunhime. (Radio Edit)
TTITLE9=Run DMC vs. Jason Nevis. - It's Like hat. (Radio Edit)
TTITLE10=Close II You. - Nice and Nasty. (Dance Mix)
TTITLE11=Five. - Slam Dunk. (Da Funk) (Radio Edit)
TTITLE12=Ato, Call Me. - If You Need Somebody. (Love Video)
TTITLE13=Solid Base. - All My Life. (Video Rmx)
TTITLE14=Touche. - I Want You Back, I Want You Heart. (Extended Mix)
TTITLE15=Pharao. - Once Upon A Time. (Extended Mix)
TTITLE16=Space Unlimited. - Relax. (Master Mix)
TTITLE17=Clueless. - Spiderwebs. (Extended Radio Mix)
EXTD=
EXTT0=
EXTT1=
EXTT2=
EXTT3=
EXTT4=
EXTT5=
EXTT6=
EXTT7=
EXTT8=
EXTT9=
EXTT10=
EXTT11=
EXTT12=
EXTT13=
EXTT14=
EXTT15=
EXTT16=
EXTT17=
PLAYORDER=
